<svg width="33" height="37" viewBox="0 0 33 37" fill="none" xmlns="http://www.w3.org/2000/svg">
<path d="M22.0469 29.2344C22.3594 27.5938 22.5859 25.875 22.7266 24.0781C22.8828 22.2656 22.9609 20.4219 22.9609 18.5469C22.9609 16.5625 22.8828 14.5938 22.7266 12.6406C22.5703 10.6719 22.3438 8.78125 22.0469 6.96875C21.1719 6.71875 20.2188 6.5 19.1875 6.3125C18.2969 6.14062 17.2578 5.98438 16.0703 5.84375C14.8984 5.70312 13.625 5.63281 12.25 5.63281C11.9844 5.63281 11.7109 5.63281 11.4297 5.63281C11.1484 5.63281 10.8672 5.64844 10.5859 5.67969C10.5859 5.94531 10.5859 6.39844 10.5859 7.03906C10.5859 7.67969 10.5859 8.46875 10.5859 9.40625C10.6016 10.3281 10.6094 11.375 10.6094 12.5469C10.625 13.7031 10.6406 14.9219 10.6562 16.2031C10.6719 17.4844 10.6953 18.7969 10.7266 20.1406C10.7578 21.4844 10.7969 22.8125 10.8438 24.125C10.8906 25.4375 10.9375 26.7031 10.9844 27.9219C11.0469 29.125 11.1172 30.2344 11.1953 31.25C12.6328 31.1875 14 31.0469 15.2969 30.8281C16.6094 30.6094 17.7656 30.3828 18.7656 30.1484C19.9375 29.8672 21.0312 29.5625 22.0469 29.2344ZM8.07812 0.0078125C9.92188 0.0078125 11.8125 0.101562 13.75 0.289062C15.7031 0.476562 17.5938 0.8125 19.4219 1.29688C21.2656 1.78125 23.0078 2.44531 24.6484 3.28906C26.2891 4.13281 27.7188 5.20312 28.9375 6.5C30.1719 7.79688 31.1484 9.35938 31.8672 11.1875C32.5859 13 32.9453 15.1328 32.9453 17.5859C32.9453 19.9609 32.6328 22.0703 32.0078 23.9141C31.3828 25.7578 30.5312 27.3828 29.4531 28.7891C28.3906 30.1797 27.1406 31.3594 25.7031 32.3281C24.2656 33.2969 22.7266 34.0859 21.0859 34.6953C19.4609 35.3047 17.7734 35.7422 16.0234 36.0078C14.2734 36.2891 12.5547 36.4297 10.8672 36.4297C9.22656 36.4297 7.78125 36.3906 6.53125 36.3125C5.28125 36.25 4.21875 36.1797 3.34375 36.1016C2.32812 36.0078 1.44531 35.8984 0.695312 35.7734C0.882812 32.7109 1.04688 29.6562 1.1875 26.6094C1.32812 23.5625 1.39844 20.5 1.39844 17.4219C1.39844 15.9062 1.375 14.4609 1.32812 13.0859C1.29688 11.7109 1.25 10.3516 1.1875 9.00781C1.125 7.66406 1.04688 6.3125 0.953125 4.95312C0.875 3.57812 0.789062 2.125 0.695312 0.59375C1.99219 0.34375 3.26562 0.1875 4.51562 0.125C5.76562 0.046875 6.95312 0.0078125 8.07812 0.0078125Z" fill="#E50914"/>
</svg>
