<svg width="41" height="9" viewBox="0 0 41 9" fill="none" xmlns="http://www.w3.org/2000/svg">
<path d="M0.492004 0.599998H2.50801C3.16401 0.599998 3.65601 0.775999 3.98401 1.128C4.31201 1.48 4.47601 1.996 4.47601 2.676V6.924C4.47601 7.604 4.31201 8.12 3.98401 8.472C3.65601 8.824 3.16401 9 2.50801 9H0.492004V0.599998ZM2.48401 7.8C2.70001 7.8 2.86401 7.736 2.97601 7.608C3.09601 7.48 3.15601 7.272 3.15601 6.984V2.616C3.15601 2.328 3.09601 2.12 2.97601 1.992C2.86401 1.864 2.70001 1.8 2.48401 1.8H1.81201V7.8H2.48401ZM5.36701 0.599998H7.32301C8.00301 0.599998 8.49901 0.760001 8.81101 1.08C9.12301 1.392 9.27901 1.876 9.27901 2.532V3.048C9.27901 3.92 8.99101 4.472 8.41501 4.704V4.728C8.73501 4.824 8.95901 5.02 9.08701 5.316C9.22301 5.612 9.29101 6.008 9.29101 6.504V7.98C9.29101 8.22 9.29901 8.416 9.31501 8.568C9.33101 8.712 9.37101 8.856 9.43501 9H8.09101C8.04301 8.864 8.01101 8.736 7.99501 8.616C7.97901 8.496 7.97101 8.28 7.97101 7.968V6.432C7.97101 6.048 7.90701 5.78 7.77901 5.628C7.65901 5.476 7.44701 5.4 7.14301 5.4H6.68701V9H5.36701V0.599998ZM7.16701 4.2C7.43101 4.2 7.62701 4.132 7.75501 3.996C7.89101 3.86 7.95901 3.632 7.95901 3.312V2.664C7.95901 2.36 7.90301 2.14 7.79101 2.004C7.68701 1.868 7.51901 1.8 7.28701 1.8H6.68701V4.2H7.16701ZM10.2068 0.599998H13.8068V1.8H11.5268V4.02H13.3388V5.22H11.5268V7.8H13.8068V9H10.2068V0.599998ZM15.5862 0.599998H17.3742L18.7422 9H17.4222L17.1822 7.332V7.356H15.6822L15.4422 9H14.2182L15.5862 0.599998ZM17.0262 6.216L16.4382 2.064H16.4142L15.8382 6.216H17.0262ZM19.3826 0.599998H21.2666L22.1066 6.612H22.1306L22.9706 0.599998H24.8546V9H23.6066V2.64H23.5826L22.6226 9H21.5186L20.5586 2.64H20.5346V9H19.3826V0.599998ZM25.8397 0.599998H29.3317V1.8H27.1597V4.14H28.8637V5.34H27.1597V9H25.8397V0.599998ZM29.9647 0.599998H31.2847V7.8H33.4567V9H29.9647V0.599998ZM34.0897 0.599998H35.4097V9H34.0897V0.599998ZM37.5623 4.704L36.1103 0.599998H37.5023L38.3903 3.312H38.4143L39.3263 0.599998H40.5743L39.1223 4.704L40.6463 9H39.2543L38.2943 6.072H38.2703L37.2863 9H36.0383L37.5623 4.704Z" fill="#E50914"/>
</svg>
